/* XPM */
static char *a616b3ea8d074483d4fc838d9fa2d653pLZS29GkFlurlAZi[] = {
/* columns rows colors chars-per-pixel */
"64 64 211 2 ",
"   c #5E330A",
".  c #5C3513",
"X  c #643502",
"o  c #693703",
"O  c #6C3B05",
"+  c #633808",
"@  c #6C3C0A",
"#  c #733B05",
"$  c #673C15",
"%  c #0A5A07",
"&  c #0B5E0D",
"*  c #135E05",
"=  c #0D5B16",
"-  c #0C630B",
";  c #16630E",
":  c #166815",
">  c #256B16",
",  c #25721D",
"<  c #327A1D",
"1  c #045E20",
"2  c #0C6726",
"3  c #186E25",
"4  c #1A7328",
"5  c #0B6A33",
"6  c #2C7B26",
"7  c #327A26",
"8  c #6E400C",
"9  c #754513",
"0  c #4F730F",
"q  c #52750D",
"w  c #516A10",
"e  c #527513",
"r  c #597E18",
"t  c #704E2C",
"y  c #5D7F20",
"u  c #75752A",
"i  c #977F09",
"p  c #A97501",
"a  c #AD7B03",
"s  c #B17C07",
"d  c #A77716",
"f  c #2E8325",
"g  c #3A8526",
"h  c #388B35",
"j  c #3D9238",
"k  c #588A1B",
"l  c #5A911A",
"z  c #68821C",
"x  c #7F8414",
"c  c #418B2C",
"v  c #5F8727",
"b  c #42932C",
"n  c #4C952B",
"m  c #429435",
"M  c #439539",
"N  c #559F3A",
"B  c #648525",
"V  c #6B8222",
"C  c #65862A",
"Z  c #6A852A",
"A  c #65882B",
"S  c #6A892B",
"D  c #649B26",
"F  c #679D2B",
"G  c #688930",
"H  c #709135",
"J  c #51A13E",
"K  c #69A534",
"L  c #6EAD30",
"P  c #76AE31",
"I  c #7BB634",
"U  c #7DBB36",
"Y  c #75B33B",
"T  c #7CB43A",
"R  c #7DBA3B",
"E  c #7EC23B",
"W  c #66A940",
"Q  c #6CB145",
"!  c #67B548",
"~  c #6CB54B",
"^  c #73B445",
"/  c #78B947",
"(  c #67B35A",
")  c #79BB54",
"_  c #6CB967",
"`  c #7BC54B",
"'  c #7BC655",
"]  c #838916",
"[  c #93861E",
"{  c #BE8706",
"}  c #B09F1C",
"|  c #83BB34",
" . c #84BD3B",
".. c #86BA3D",
"X. c #C98F00",
"o. c #CC9300",
"O. c #CE9909",
"+. c #D19701",
"@. c #D99604",
"#. c #D69B01",
"$. c #D99C03",
"%. c #D69B0A",
"&. c #DA9D09",
"*. c #CB9619",
"=. c #D49918",
"-. c #D7A202",
";. c #D9A303",
":. c #E4AE0B",
">. c #EAB30C",
",. c #EDBB0A",
"<. c #E9AF10",
"1. c #E9B112",
"2. c #EDB912",
"3. c #F0BB14",
"4. c #F2BE1C",
"5. c #C38D28",
"6. c #C69425",
"7. c #CDA23E",
"8. c #8BC535",
"9. c #8AC934",
"0. c #85C33C",
"q. c #8CC63E",
"w. c #85C93C",
"e. c #8CC93E",
"r. c #91C63C",
"t. c #92CA3D",
"y. c #EBC208",
"u. c #FECC06",
"i. c #F6C20B",
"p. c #F6C70A",
"a. c #FCC70F",
"s. c #FECB0D",
"d. c #FDD20E",
"f. c #F4C314",
"g. c #FAC615",
"h. c #F5CB13",
"j. c #FDCB12",
"k. c #F6C51B",
"l. c #F8C51B",
"z. c #F5CA1D",
"x. c #FDCC1B",
"c. c #FED215",
"v. c #F7D118",
"b. c #FED21A",
"n. c #EDC82C",
"m. c #F6CB20",
"M. c #F7C926",
"N. c #FED522",
"B. c #EACD33",
"V. c #F4C932",
"C. c #FCD636",
"Z. c #84BC43",
"A. c #89BF45",
"S. c #CBA44C",
"D. c #E1B753",
"F. c #C19E63",
"G. c #CFB56C",
"H. c #86C342",
"J. c #8DC642",
"K. c #84CA42",
"L. c #8ECA44",
"P. c #86C34A",
"I. c #8CC54A",
"U. c #87C94B",
"Y. c #8DCA4A",
"T. c #91C542",
"R. c #92C544",
"E. c #91CA42",
"W. c #90C945",
"Q. c #99C946",
"!. c #93C54B",
"~. c #91CA4B",
"^. c #9BCB4A",
"/. c #89D149",
"(. c #96D34B",
"). c #84C553",
"_. c #8CCD53",
"`. c #89C955",
"'. c #86CC59",
"]. c #91CD51",
"[. c #89D25D",
"{. c #97D155",
"}. c #A2CD4C",
"|. c #A2D14F",
" X c #A4D351",
".X c #A0D65A",
"XX c #B7DB5D",
"oX c #83CE65",
"OX c #8BD265",
"+X c #BADF62",
"@X c #8FE068",
"#X c #BBE666",
"$X c #BDE565",
"%X c #F6D546",
"&X c #F0D251",
"*X c #FEE15E",
"=X c #EDD66C",
"-X c #C3EA6B",
";X c #FDE765",
":X c #FBE771",
">X c #F8E69A",
",X c #FEF29C",
"<X c #FFF999",
"1X c #FFEFA4",
"2X c #FFF5A4",
"3X c #FFF3AC",
"4X c #FDF3B5",
"5X c #FEF9B1",
"6X c #FDF3BC",
"7X c #F7F4C2",
"8X c #FEF2C2",
/* pixels */
"J.J.J.J.J.J.J.J.J.q.q.J.L.J.J.W.J.W.W.J.J.J.J.J.J.J.J.J.J.J.J.J.J.J.q.q.q.q.q.J.q.q.q.J.q.q.e.e.L.L.J.J.J.J.J.J.q.q.R.R.R.R.R.J.",
"J.J.J.J.J.J.J.J.q.J.J.q.J.W.W.J.J.W.W.J.J.J.J.J.J.J.J.J.J.J.J.J.J.J.q.q.e.L.q.q.q.q.q.J.q.q.e.e.L.L.J.J.J.J.J.J.e.L.R.R.R.R.J.L.",
"J.J.J.J.J.J.J.J.q.J.J.J.J.W.W.J.J.W.L.J.J.J.J.J.J.J.J.J.J.J.J.J.J.J.J.J.L.q.q.q.q.q.q.q.q.q.e.e.J.J.J.J.J.J.J.J.e.L.L.J.J.q.J.L.",
"J.J.J.J.J.J.J.J.J.q.q.L.W.J.J.L.q.L.J.J.J.J.J.J.J.J.J.J.J.J.J.J.J.J.J.J.J.e.q.q.q.q.q.J.q.q.e.e.J.J.J.J.L.J.q.q.e.e.e.q.q.q.q.L.",
"J.J.J.J.J.J.J.J.J.q.q.J.L.J.J.J.q.J.J.q.J.J.J.J.J.J.J.J.J.J.J.J.J.J.J.J.J.J.w e H @ @ @ q.q.e.e.R.J.J.L.W.L.q.q.q.q.e.e.e.q.q.J.",
"J.J.J.J.J.J.J.J.q.J.J.J.J.L.J.q.q.J.J.q.J.J.J.J.J.J.J.J.J.m.m.z.V.d d d d w q r H @ @ @ q.e.e.e.R.R.J.W.W.L.q.q.q.q.q.e.e.q.J.R.",
"J.J.J.J.J.J.J.J.q.J.J.J.J.L.J.q.q.q.J.J.J.J.q.J.J.J.J.J.J.s.s.s.x.a a s s e 0 e C @ @ O q.q.e.e.r.r.R.L.L.L.q.J.R.J.q.q.q.J.R.R.",
"J.J.J.J.J.J.J.J.L.J.J.L.W.J.J.J.q.q.J.J.J.J.q.J.J.J.J.j.s.j.s.j.j.s $.i e q C v V @ @ 8 @ q.e.e.r.r.q.q.e.L.R.J.R.R.J.q.q.R.R.R.",
"K.L.J.J.J.J.L.J.J.J.J.J.J.J.q.q.J.J.L.q.q.q.8.t.t.t.u.s.s.j.s.p a a #.i e C A Z @ @ @ O q.q.q.q.R.q.J.q.L.J.R.R.e.e.E.8.W.e.J.e.",
"L.L.J.J.J.J.J.q.J.J.J.J.J.J.q.q.J.q.L.q.J.J.q.8.8.W.f.f.f.f.f.{ { [ } ] r S u u 9 9 t t q.q.q.q.R.J.J.q.L.J.R.R.e.8.e.8.L.q.q.L.",
"J.J.J.J.J.J.q.q.J.J.J.J.J.J.q.q.q.8.e.8.L.J.Y.#.#.$.$.$.$.#.#.#.&.q q y q V + @ @ @ q.q.q.q.q.q.R.J.J.J.L.J.R.R.L.q.W.W.W.J.J.W.",
"T.R.R.R.J.J.J.L.J.J.J.J.J.J.q.q.e.8.8.$.$.#.@.$.c.c.c.s.j.s.s.q e q B G C C C A @ J.J.q.q.q.q.q.R.J.J.J.L.J.q.q.L.q.L.J.R.R.T.T.",
"}.}. X^.J.J.J.L.J.J.J.J.J.q.q.q.8.5.5.#.N.N.N.b.c.c.j.j.j.s.s.z Z S C G C C C k J.J.J.q.q.q.q.q.J.J.J.J.J.J.q.q.q.q.J.q.R. X|.^.",
"+X#X#X XR.W.J.L.J.J.J.q.q.q.q.q.9.O.$.@.c.c.c.c.c.c.j.j.j.j.j.z C C C A A Z S Z J.J.J.J.q.q.q.q.J.J.J.J.J.J.J.J.e.q.J.q.Q.#X$XXX",
"-X-X-X XR.W.J.L.J.J.J.q.q.q.q.q.9.z.j.c.b.c.c.c.c.c.s.s.s.s.$.z A C C G B J. .^.J.J.J.J.q.q.q.q.q.q.J.J.J.J.J.J.q.q.q.q.Q.$X-X+X",
"$X$X$X}.q.W.J.J.J.J.J.q.q.q.q.q.j.b.c.c.c.c.c.s.j.s.j.s.1.$.$.z B Z s.( _.q.R.A.J.J.J.J.q.q.q.q.e.q.q.J.J.J.J.J.L.q.q.r.Q.$X-XXX",
"J.R.R.R.R.R.J.q.q.q.q.q.q.L.L.L.j.b.c.c.c.c.j.s.j.j.j.i.<.$.;.] x ] s._ ' K.0...U  .q.e.L.L.L.L.q.e.L.L.W.L.L.e.q.q.q.J.q.J.J.J.",
"J.J.R.R.R.R.J.q.q.q.q.q.q.L.S.#.c.c.c.c.c.s.s.s.j.x.s.$.&.$.s.#.#.s.c.( ' 0.U T U  .q.L.L.L.L.J.W.W.W.W.W.W.L.L.q.q.q.q.q.q.q.J.",
"J.J.J.R.R.J.J.q.q.q.q.q.q.J.S.#.c.c.c.c.j.s.s.j.j.s.s.$.>.j.#.$.#.s.c.( ` 0.U T I  .q.L.W.L.L.L.W.W.W.L.L.L.W.W.q.q.q.q.q.q.J.J.",
"J.J.J.J.J.J.J.q.q.q.q.q.q.*.M.N.c.c.b.s.s.s.j.j.j.j.+.&.3.s.$.x.x.s.c.~ / E 0.H.| 0.q.W.W.W.W.L.e.q.q.q.q.e.W.W.L.L.e.e.e.e.L.L.",
"J.J.J.J.J.J.J.q.q.q.q.q.q.#.k.b.c.c.b.s.s.j.j.s.j.x.#.#.2.s.$.j.j.s.c.^ Y U 0.e.q.q.L.J.J.J.J.J.q.q.q.q.q.e.W.W.W.W.W.W.W.L.L.L.",
"J.J.J.J.J.J.J.q.q.q.q.q.q.$.h.c.c.c.c.s.s.s.s.s.+.#.$.s.s.s.#.j.s.s.c.b.c. .0.e.e.e.q.J.J.J.J.L.L.L.L.L.L.L.W.W.L.L.L.L.L.L.L.L.",
"J.J.J.J.J.J.J.q.q.q.L.q.u.%.l.c.c.c.c.s.s.s.s.s.+.+.s.s.s.s.#.j.s.s.s.b.c.H.0.8.q.q.q.J.J.J.L.W.W.W.W.W.W.W.e.e.L.L.L.L.L.e.e.e.",
"J.J.J.J.J.J.R.q.q.q.L.L.j.$.m.b.b.c.c.j.j.j.j.j.#.+.j.s.j.j.$.j.s.j.j.b.b.Y.8.8.8.8.q.J.J.J.J.J.L.W.W.W.W.L.q.q.e.L.L.L.L.e.e.e.",
"q.q.q.q.e.e.e.e.e.e.J.L.s.$.k.c.c.s.s.s.s.s.s.j.#.+.s.s.j.s.#.j.s.s.s.b.c.L.L.L.J.J.J.J.J.J.J.J.L.W.W.W.L.L.q.q.e.8.e.e.q.W.q.q.",
"q.q.q.q.q.e.e.e.q.e.J.q.h.@.k.c.h.s.j.s.s.s.s.$.$.+.s.s.j.s.#.j.j.s.j.b.c.L.L.L.J.J.J.J.J.J.L.J.q.e.L.L.L.q.q.q.e.8.e.W.W.W.W.W.",
"L.q.q.q.q.e.e.e.8.e.B.M.#.#.k.c.h.j.j.s.s.s.s.$.$.+.s.s.j.s.#.#.#.j.j.b.c.C.J.J.J.J.J.J.J.J.J.q.q.q.q.q.q.q.q.q.W.e.L.J.J.J.J.J.",
"L.L.q.q.q.q.q.q.L.q.j.j.#.#.k.c.c.s.s.s.s.s.s.$.$.+.s.s.s.s.#.$.#.s.j.c.c.c.J.J.J.J.J.J.J.J.J.q.q.q.q.q.q.q.q.q.e.W.J.H.~.~.~.~.",
"e.e.q.q.q.q.q.q.e.q.j.j.#.c.b.c.s.s.j.j.s.s.s.$.@.+.s.s.s.s.$.$.#.s.j.j.s.b.c.d.J.J.J.J.J.W.W.J.q.q.q.q.q.q.q.q.q.L.J.J.I.T  . .",
"e.e.e.q.q.q.q.q.8.q.j.j.#.c.b.c.s.s.s.s.j.s.s.#.#.+.s.s.s.j.@.#.#.#.s.j.s.s.c.c.J.J.J.J.J.J.J.q.q.q.q.q.q.q.q.q.e.q.J.I.Z.l l D ",
"e.e.e.q.q.q.q.q.L.L.j.x.$.b.b.b.j.j.j.j.j.j.s.$.$.#.x.j.j.j.;.$.$.$.j.j.j.j.b.c.J.J.J.J.q.J.J. .q.q.q.q.q.q.q.q.e.q.J.I.Z.k l D ",
"e.e.e.e.q.q.q.L.L.q.j.j.$.c.b.c.j.s.j.s.s.s.s.$.$.$.#.s.j.s.s.#.$.$.s.j.j.s.c.c.c.J.J.J.J.W.W.J.q.q.q.q.q.q.q.q.e.W.J.I.Z.D F K ",
"q.q.q.q.q.q.q.q.q.q.j.j.$.c.b.c.c.s.j.s.s.s.s.$.$.+.c.s.j.s.s.#.$.$.$.3.s.s.j.s.c.W.J.J.q.J.J.J.J.J.J.J.J.J.J.J.e.L.q.q.H.H. . .",
"q.q.q.q.q.q.q.q.e.q.l.x.@.b.N.b.b.j.j.j.j.j.s.$.$.#.h.b.x.j.j.$.$.$.&.4.j.j.j.h.c.%XJ.J.J.J.J.q.J.J.J.J.J.J.J.J.L.L.L.L.Y.Y.Y.Y.",
"q.q.q.q.q.q.q.q.q.q.x.x.$.c.b.c.c.s.j.j.j.s.s.#.#.o.h.c.j.s.s.#.#.#.@.2.j.s.j.j.b.b.J.L.L.J.J.q.J.J.J.J.J.J.J.J.J.J.J.J.J.J.J.J.",
"L.L.L.L.L.L.L.L.q.@.x.j.$.#.l.c.c.s.j.s.s.s.s.$.%.o.$.c.j.s.s.#.#.$.$.$.$.s.j.j.j.c.b.c.J.J.J.L.J.J.J.J.J.J.J.J.J.J.J.J.J.J.q.q.",
"L.L.L.L.L.L.L.L.L.&.j.j.$.#.l.c.c.s.j.s.s.s.s.o.+.$.#.c.c.c.s.j.x.$.$.$.$.s.j.j.j.j.j.b.a.J.J.W.J.J.J.J.J.J.J.J.q.L.L.e.e.W.W.t.",
"L.L.L.L.L.L.L.L.L.@.h.g.#.#.k.b.c.j.j.s.s.j.i.X.$.$.#.x.c.c.j.s.x.$.#.$.$.s.s.j.x.s.j.c.s.J.J.W.J.J.J.J.J.J.J.J.8.q.q.q.q.q.q.e.",
"L.L.L.L.L.L.L.L.L.&.#.$.$.#.k.c.j.s.j.s.s.s.j.$.$.$.$.$.2.c.s.s.j.$.$.$.$.s.s.j.s.s.j.c.s.u.k.W.J.J.J.J.J.J.J.J.e.L.L.J.J.J.J.J.",
"L.L.L.L.L.L.L.L.L.L.+.$.#.#.l.b.6X6X4Xs.s.s.s.s.+.$.#.$.2.b.c.s.s.s.$.$.$.#.j.s.s.s.s.s.j.j.s.s.J.J.J.J.J.J.J.J.q.J.J.J.J.I.I.I.",
"L.L.L.L.L.L.L.L.L.L.e.e.$.$.l.c.V.3X8Xj.j.j.j.j.@.$.$.$.$.#.c.j.j.s.x.1.$.$.#.+.s.j.j.j.2Xx.j.j.n.=Xe.e.e.e.W.W.I.I.J.J.L.e.L.L.",
"L.L.L.L.L.L.L.L.e.L.L.L.$.#.l.c.c.4X4Xs.s.s.s.s.#.$.$.$.$.$.c.s.s.s.s.:.$.#.$.#.s.s.s.s.6Xh.s.u.s.&Xe.e.e.e.L.W.I.J.J.J.L.L.L.L.",
"L.L.L.L.L.L.L.L.J.L.L.W.$.#.l.c.c.4X4Xs.s.s.s.j.#.@.$.$.$.#.c.s.s.s.c.j.s.$.$.#.$.$.>.s.s.s.g.6X7X:Xj.s.e.e.L.W.J.J.J.J.J.J.J.J.",
"L.L.L.L.L.L.L.L.L.L.L.W.@.#.&.#.b.c.v.s.s.s.s.j.j.j.#.#.&.$.c.c.c.p.i.s.s.j.+.@.#.#.#.+.@.h.s.s.6X6X8Xj.e.e.L.L.J.J.J.J.J.J.J.J.",
"e.e.e.e.L.L.L.L.q.q.e.e.6.$.$.$.b.c.c.j.j.j.j.j.j.j.&.$.$.$.x.b.b.s.B.M.s.s.#.#.$.$.$.$.$.g.j.j.1X,X,Xs.e.e.L.L.L.J.J.J.J.J.J.J.",
"q.q.q.q.q.q.q.q.e.q.q.L.L.$.-.#.c.c.b.b.s.s.s.s.s.j.$.$.$.#.$.b.c.j.6X=Xu.s.s.j.#.$.$.$.$.#.$.#.s.j.g.s.X @ # L.J.J.J.J.J.J.J.J.",
"q.q.q.q.q.q.q.q.W.L.L.L.L.#.%.$.s.c.b.c.6X&Xs.s.j.s.s.$.$.$.#.c.c.b.s.s.s.s.s.s.s.#.$.$.$.@.$.$.$.$.@.u.X + L.L.J.J.J.J.J.J.J.J.",
"q.q.q.q.q.q.q.q.J.J.J.J.H.#.%.$.#.b.c.c.6X1X,Xs.j.s.s.g.>.$.$.-.#.c.c.*X1Xs.s.s.s.g.a.g.$.$.$.$.#.$.$.#.o   L.L.L.L.L.L.W.W.W.W.",
"q.q.q.q.q.q.q.q.J.I.I.P.~ #.%.@.$.b.b.c.4X8X6Xs.j.j.j.j.1.$.$.#.+.b.c.;X4Xj.j.z.j.j.j.i.%.O.@.@.%.&.@.@.o   L.L.e.e.J.W.R.J.].` ",
"q.q.q.q.q.q.q.q.~.~.I.P.Q * 7.#.$.$.#.c.c.:X8Xs.j.x.s.j.1.$.#.$.$.$.c.;X6X6X4X6Xh.j.p.f.j.q.J.L.L.L.J.| R Y.L.| 8.e.W.W.J.I.[.' ",
"q.q.q.q.q.q.q.q.0.J.Y.Y./ ; S.#.$.$.$.#.b.b.c.6Xi.s.s.s.j.j.@.$.$.+.#.3.b.d.3X4X5Xs.,.s.x.c.M.J.(.q.(._.'.`.Y.8.8.t.t.R.I.'.oX' ",
"q.q.q.q.q.q.q.q.e.J.J.I.).W F.5.$.$.#.$.c.d.c.2XV.n.n.s.j.j.+.#.$.$.$.4.b.c.<X<X>Xs.j.j.c.C.%XJ.J.0._.n , < F e.e.t.q.J.K < f f ",
"q.q.q.q.q.q.q.q.e.e.L.Y._._.[.' #.$.$.$.c.b.b.c.6X4X6Xs.j.j.s.#.$.$.$.&.$.c.c.h.y.c.c.c.c.X O @ W.J.'.7 = : n K.U.q.| .X~ % - : ",
"q.q.q.q.q.q.q.q.W.0.J.P.Z.~.U.).#.$.$.$.$.2.c.d.d.m.8Xs.j.j.s.s.j.$.#.$.$.#.#.+.$.$.$.$.$.X . J.(.Y.).< % & m @XOX_.q.].! % : , ",
"q.q.q.q.q.q.q.q.~.J.H.A.Z.J.H.).4 =.&.$.$.;.;.c.b.b.%Xc.b.b.c.s.x.R.R.D.&.$.&.&.$.$.$.&.&.@ $ J.J.~.~.K n J M j j Q {.{.~ - : > ",
"q.q.q.q.q.q.q.q.!.I./ ^ Z.H.Y.).4 %.$.$.$.#.#.c.c.c.b.c.b.c.c.s.m.R.R.G.#.$.$.$.$.$.$.$.@.X   J.J. .r.(./.[.M - 2 c Y.U.! - ; > ",
"q.q.q.q.q.q.q.q.I.I.Z.Y T P.`.P.3 = ; #.#.$.$.$.c.c.c.c.c.c.c.X @ @ 8.q.q.8.q.q.J.J.J.J.J.J.J.J.K.U.Y.H.H.'.j 2 2 j _.Y.^ * & - ",
"q.q.q.q.q.q.q.q.I.P.Z.Z.Z.Z.P.Z.h g c ) #.$.$.$.#.#.#.#.#.#.#.o O @ q.e.e.8.q.q.J.J.J.J.J.J.J.J.K.H.I.J.L.'.h 1 5 h `.Y./ g g b ",
"q.q.q.q.q.q.q.q.I.I.I.I.A. .R  .) / ^ ).=.=.*.=.&.$.#.#.$.$.$.O @ $ q.e.e.q.q.q.J.J.J.J.J.J.J.J.H.Z. .| 0.'.M 2 5 h [.Y.I.^ Q ).",
"q.q.q.q.q.q.q.q.I.I.I.~.H.| U U I P P I  .L.Y.U.@.#.$.$.$.$.$.o   L.e.e.e.e.L.L.J.J.J.J.J.J.J.J.Z. . .| 0.`.m & 2 M OXY.H.Z.Y T ",
"q.q.q.q.q.q.q.q.I.J.J.J.q. .| | | | q.8.8.e.w.K.L.L.Y.Y.Y.L.L.L.L.L.e.e.e.e.L.L.q.J.J.J.J.J.J.J.I. . .| q.U.N 6 6 N ).H.H.H.Z...",
"q.q.q.q.q.q.q.q.J.J.L.J.J.q.q.q.8.8.r.8.8.8.w.K.L.L.Y.Y.Y.Y.L.L.L.L.e.e.e.e.L.L.J.J.J.J.J.J.J.J.J... .| I R ^ ) ~ / I.H.L.H.J.!.",
"q.q.q.q.q.q.q.q.J.J.L.L.L.L.W.W.E.W.8.8.8.8.q.J.e.L.L.L.Y.Y.W.W.e.L.e.e.e.e.L.e.J.J.J.J.J.J.J.J.J.J.q.| P L T P.Y Y I.q.(.e.J.R.",
"q.q.q.q.q.q.q.q.q.q.e.L.L.q.q.J.q.R.q.T.r.r.q.J.e.L.L.L.L.W.W.W.q.L.e.e.e.e.L.q.J.L.J.J.J.J.J.R.W.W.J. . . .Z...T T !.| L.w.J.R."
};
