/* XPM */
static char *aaf82c90d59a46a192b4572e20c37d0c0Ikkjmn778LlkxKu[] = {
/* columns rows colors chars-per-pixel */
"64 64 251 2 ",
"   c None",
".  c #010303",
"X  c #0D0002",
"o  c #000A01",
"O  c #02020B",
"+  c #0D010C",
"@  c #010B0A",
"#  c #090800",
"$  c #130002",
"%  c #1C0001",
"&  c #14000C",
"*  c #1B000C",
"=  c #001601",
"-  c #090316",
";  c #150112",
":  c #190016",
">  c #17180E",
",  c #240000",
"<  c #2C0000",
"1  c #23000D",
"2  c #350403",
"3  c #3A0B1A",
"4  c #29131A",
"5  c #38151A",
"6  c #321210",
"7  c #172510",
"8  c #1C1D25",
"9  c #2C0C28",
"0  c #3C0B25",
"q  c #3C052B",
"w  c #340C2D",
"e  c #3B0C2C",
"r  c #370826",
"t  c #2D142B",
"y  c #291727",
"u  c #34142C",
"i  c #3C122D",
"p  c #321A2D",
"a  c #381627",
"s  c #3B0533",
"d  c #360D32",
"f  c #3B0C33",
"g  c #3C0B3A",
"h  c #360635",
"j  c #2C1933",
"k  c #351232",
"l  c #3C1233",
"z  c #381836",
"x  c #2B0C35",
"c  c #17302B",
"v  c #282126",
"b  c #33242B",
"n  c #29251B",
"m  c #480A09",
"M  c #430C15",
"N  c #470A19",
"B  c #520B15",
"V  c #48111A",
"C  c #531116",
"Z  c #530D07",
"A  c #553715",
"S  c #6D2908",
"D  c #772907",
"F  c #6B3209",
"G  c #692A17",
"H  c #762917",
"J  c #713312",
"K  c #430B24",
"L  c #42052D",
"P  c #420C2B",
"I  c #4B0B27",
"U  c #451229",
"Y  c #430C33",
"T  c #420D3A",
"R  c #470935",
"E  c #421134",
"W  c #43123B",
"Q  c #4C1432",
"!  c #5E1F2A",
"~  c #492A37",
"^  c #5A263A",
"/  c #53342C",
"(  c #6A2928",
")  c #732A29",
"_  c #673526",
"`  c #6B2C3A",
"'  c #672637",
"]  c #75353A",
"[  c #702E36",
"{  c #0D5D06",
"}  c #30491A",
"|  c #116610",
" . c #287119",
".. c #395833",
"X. c #1A493D",
"o. c #4D4418",
"O. c #524A2E",
"+. c #625222",
"@. c #362F46",
"#. c #491642",
"$. c #631D45",
"%. c #5D2443",
"&. c #5B2B43",
"*. c #5D244C",
"=. c #592A4A",
"-. c #5A3647",
";. c #5E2752",
":. c #4E3243",
">. c #632544",
",. c #632B44",
"<. c #63254C",
"1. c #6A244C",
"2. c #632A4C",
"3. c #6B2B4A",
"4. c #6B2944",
"5. c #66324B",
"6. c #642A53",
"7. c #682852",
"8. c #6B3352",
"9. c #742A4D",
"0. c #385453",
"q. c #2C644C",
"w. c #1C7349",
"e. c #4E4D4C",
"r. c #724E51",
"t. c #486F48",
"y. c #7E4964",
"u. c #755367",
"i. c #5F635F",
"p. c #822C0F",
"a. c #822E24",
"s. c #B75E37",
"d. c #A55E34",
"f. c #AB6538",
"g. c #B5673B",
"h. c #934F3A",
"j. c #C3663D",
"k. c #873F56",
"l. c #89484D",
"z. c #94494B",
"x. c #8C4454",
"c. c #854B54",
"v. c #8D4B54",
"b. c #84445B",
"n. c #8C465C",
"m. c #8B4B5C",
"M. c #844658",
"N. c #924654",
"B. c #91455A",
"V. c #934B5C",
"C. c #964B57",
"Z. c #88525A",
"A. c #925042",
"S. c #AC5E45",
"D. c #B45E44",
"F. c #A35750",
"G. c #986E51",
"H. c #AB6749",
"J. c #B4644A",
"K. c #B76946",
"L. c #A96856",
"P. c #B36856",
"I. c #AB7351",
"U. c #8C4563",
"Y. c #844A63",
"T. c #8B4B63",
"R. c #8D4C6B",
"E. c #864766",
"W. c #924462",
"Q. c #924B63",
"!. c #964B67",
"~. c #8A5167",
"^. c #935265",
"/. c #885071",
"(. c #997565",
"). c #A56665",
"_. c #A96C6D",
"`. c #AB5B68",
"'. c #C26846",
"]. c #348424",
"[. c #59901A",
"{. c #4C9534",
"}. c #659C28",
"|. c #70AD38",
" X c #6BB448",
".X c #75B647",
"XX c #5D8F5A",
"oX c #78C653",
"OX c #84BC3C",
"+X c #8CC63E",
"@X c #8CC93E",
"#X c #86C738",
"$X c #91C73E",
"%X c #B48555",
"&X c #87BD44",
"*X c #B99671",
"=X c #958058",
"-X c #DA905F",
";X c #E38B5D",
":X c #E2925F",
">X c #DC8D6C",
",X c #D98965",
"<X c #CB966C",
"1X c #DC926B",
"2X c #D69467",
"3X c #D88C78",
"4X c #DB9274",
"5X c #D69578",
"6X c #CC8E77",
"7X c #E38C63",
"8X c #E68A69",
"9X c #E4936A",
"0X c #E38B77",
"qX c #E59476",
"wX c #C9A37F",
"eX c #8DC642",
"rX c #8EC941",
"tX c #8CC54B",
"yX c #89C746",
"uX c #91C543",
"iX c #91CA43",
"pX c #94C849",
"aX c #90CF52",
"sX c #A8D454",
"dX c #BADF62",
"fX c #BDE566",
"gX c #83CE65",
"hX c #C3E86B",
"jX c #B69A8A",
"kX c #D89588",
"lX c #D68D8D",
"zX c #E1948B",
"xX c #FDBE8A",
"cX c #FEBE99",
"vX c #E0ADAC",
"bX c #FEC48C",
"nX c #FECB8C",
"mX c #F7C789",
"MX c #FEC593",
"NX c #FECB94",
"BX c #FEC49B",
"VX c #FFCC9C",
"CX c #F7C892",
"ZX c #FCD194",
"AX c #FFD29A",
"SX c #FED18E",
"DX c #FFC5A4",
"FX c #FECBA3",
"GX c #FEC6AA",
"HX c #FDC9B1",
"JX c #FFD1A2",
/* pixels */
"eXeXeXeXeXeXeXeXe.e.a u t O 0.0.0.e.0.c   eXeXeXeXeXeXeXeXeXeXeXeXeX+X+X+X+X+XeX+X+X+XeX+X+X@X@XrXrXeXeXeXeXeXeX+X+XuXuXuXuXuXeX",
"eXeXeXeXeXeXeX  y &.&.0 & t 8 @.0.@.8 o = eXeXeXeXeXeXeXeXeXeXeXeXeX+X+X@XrX+X+X+X+X+XeX+X+X@X@XrXyXeXeXeXeXeXeX@XrXuXuXuXuXeXrX",
"eXeXeXeXeXeX  V 4.T.R.N ,.~.y.u.:.y o   eXeXeXeXeXeXeXeXeXeXeXeXeXeXeXeXrX+X+X+X+X+X+X+X+X+X@X@XeXeXeXeXeXeXeXeX@XrXrXeXeXeXeXrX",
"eXeXeXeXeXeXa ' W.W.!.B.B.x.V.` a &     eXeXeXeXeXeXeXeXeXeXeXeXyXyXeXeXeX@X+X+X+X+X+XeX+X+X@X@XeXeXeXeXrXeX+X+X@X@X@X+X+X+X+XrX",
"eXeXeXeXeX  ^ !.!.!.W.!.B.C.C.c.&.9 : O     eXeXeXeXeXeXeXeXeXeXeXeXeXeXyXyX+X+X+X+X+XeX+X+X@X@XuXeXuXrXpXrX+X+X+X+X@X@X@X+X+XeX",
"eXeXeXeXeXb ~.m.T.b.!.W.W.N.C.` U d 9 y - @   eXeXeXeXeXeXeXeXeXeXeXeXeXrXeX+X+X+X+X+XeX+X@X@X@XuXuXuXiXiXrX+X+X+X+X+X@X@X+XeXuX",
"eXeXeXeXeX/ c.v.c.Z.Y.R.!.k.x.m.&.l w k k j O   eXeXeXeXeXeXeXeX+X+X+XeXrXrX+X+X+X+X+XeX+X+X@X@XuXuXeXrXrXrX+XeXuXeX+X+X+XeXuXuX",
"eXeXeXeXn Z.v.v.v.c.Y.>.' B.^.M.P e e e e w j .   eXeXeXeXeXeXeX+X+X+XeXeXeXeX+X+X+X+XeX+X+X@X@X$X$X+X+XrXrXeXeXuXuXeX+X+XuXuXpX",
"yXyXyXyXe.M.Q.W.W.!.3.' !.B.V.' e d l r l u y O   $X$XuXuXuXiX@X&X+X#XaXaXsXyXaXeXeX+X+X+X+X+X+XuXeXeX+XrXeXuXuXrX@XiX#XiX@X@X@X",
"rXrXyXyX6 !.` U.W.4.' ^.N.z.( ' 0 e U K K 0 u -             rX+XuXiXyX|.{.|.|.yXeXeX+X+X+X+X+X+XuXeXeX+XrXeXuXuX@X#X@X#X+X+X+XrX",
"eXeXeXeXL.) ' ^.Q.' [ G H P.P.L.[ M B ) ) B U & + y y j j - -                   eXeX+X+X+X+X+X+XuXeXeXeXrXeXuXuXrX+XiXiXiXeX+XpX",
"uXuXpX=XHX3X( l.( L.5XDX9X9XJ.J.( B ) 3XL.[ 3 1 u k d g h g x j j : * r U >.4.3.8.y @ @ +X+X+X+XuXeXeXeXrXeX+X+XrX+XrXeXuXuX+X+X",
"sXsXo.DXMXBXFXH.2XFXMXbXMXf.g.J.( m 3XS J ( 3 * w l r T T s E r q Q >.E.!.U.b.R.E.y.u.b @   +X+XeXeXeXeXeXeX+X+X+X+XeX+XuXsXsXpX",
"dX} G.DXFXFX2XF BXBXVXMX<XH.K.P.C C J.S H.L.V * l d W *.Y R L Q 3.U.U.!.!.R.E.E.E.8.E 4     +X+XeXeXeXeXeXeXeXeX@X+XeX+XpXfXfXdX",
"hX  % < < , , , < < < , % % < G N m J.9XK.H.5 * d =.*.7.<.7.K Y.T.Q.m.M.m.~.Y.2.L P 9 ;   +X+X+X+X+XeXeXeXeXeXeX+X+X+X+XpXfXhXdX",
"fXfX  ] ] , _ G.< ] ` % $ % L.L.' C H J.H.G , e =.6.1.>.3.>.,.T.m.m.m.c.' N P 0 E e u j @ +X+X+X@X+X+XeXeXeXeXeXrX+X+X$XpXfXhXdX",
"eXuXuX, , I.BXNX4XG , % _ 5X1XJ.).M V ' ' I %.7.>.3.4.' ' ` b.T.m.m.c.v.Q.U.2.Y d d d j @ rXrXrX+XrXrXrXiXrXrXrX+X+X+XeXeXeXeXeX",
"eXeXo.wXG <XVX-Xf.1XHXHXcXBX>XP.( V U P P 0 <.1.!.n.x.z.) ( V.n.m.m.v.V.W.9.q h f l w t 8 rXrXeXiXiXiXiXiXiXrXrX+X+X+X+XeXeXeXeX",
"eXeXo.2XH.< H.< g.MXVXFXBXH.( M 0 e r Y L 2.8.E.n.l.F.H L.P.l.V.m.m.v.m.' I L W d l d 9 -   rXrXiXiXiXrXrXrXiXiX+X+X+X+XeXeXeXeX",
"eXeX  D 4XDXDXBXMXbXbX2XS Z V e z ; d E q 2.Y.T.m.C.H D.J.P.( x.m.m.v.x.Q.U.q w d w h z O   pXrXrX+X+X+X+XrXiXiXrXrX@X@XrXrXrXrX",
"eXeX+.f.f.K.f.g.f.9XMXMXK.J 3 e u & i e P %.^.m.v.) J.K.J.P.B !.m.Q.v.V.n.R.=.l f f l : z O   eX+X+X+X+X+XrXiXiXiXiXiXiXiXrXrXrX",
"eX} *XBXFXBXxXNX2Xg.f.1Xd.H.] 0 :.& a r E E.M.v.( L.1XMXFX3XB U.n.n.B.x.V.R.e l e e l ; k O   rXrXrXrXrXrXrXiXiXrXrXrXrXrXrXrXrX",
"eX} G.BXBXMXAXnXnXbX2XK.qXS.L.m -.9 $ i E %.R.' ) 3XMXZXxXHXB R.!.n.N.V.n.Y.i e E f ; z l y .   iXiXiXiXiXiXrXrXrXrXrXrXrX@X@X@X",
"eXeX+.BXVXVXNXnXnXMXBX>X8XK.P.( 3 =.* w e 2.4.B.).GXMXnXNXGXN E.U.B.V.x.n.~.e l e e : 9 w z O   rXiXiXiXiXrX+X+XrXrXrXrXrX@X@X@X",
"+X+XA 1XCXZXZXCXNXnXMXBX7Xs.P.m 3 u * & l q <.U.) HXBXNXmXFXM R.W.B.V.B.n.%.i l u u ; k d 9 O   rXiXiXiXrXrX+X+X@X+X@X@X+XiX+X+X",
"+X+X+XI.CXAXZXNXZXxXnXxXK.J.( M i & * u w Y R 4.z.H.FXNXnXFXM E.W.x.B.n.T.Q r w u & k k f z y 0.+XrXrXrXrX+X+X+X@X#X@XiXiXiXiXpX",
"@X+X+Xo.<XbXnXmXnXZXbX2Xg.L.M a & + u w e ;.2.N kXJ 2XJXbXBXV E.Q.B.V.m.b.P e l t + z k d 9 j . q.  +X+X+X+X+X+XiX@XrXeXeXeXeXeX",
"@X@X+X+X%XbXSXSXmXnXNXf.H.( a + + u w e Y /.~._.GXGXBXxXbXFXm R.U.V.B.T.>.L f d z + 9 d l l p X o o q.    +X+X+X@XiXeXeXpXpXpXpX",
"@X@X+X+XA 1XmXSXSXnX1XJ.P.V $ + : w e =.Y >.c.m I.2XMXNXZXVXm m.n.V.n.T.I L Y d - j w d d w u $ -.4 y . o q.  +X+XrXeXeXtX|.OX&X",
"@X@X@X+X+X%XVXbXmXNXf.J.[ 3 $ + w Y P ~.>.N ) 5XBXMXNXbXbXBXm T.Q.Q.n.T.P Y Y g - y d q E e 0 5.M.^.y.-.y 8 @ X.  +XeXtX&X[.[.}.",
"@X@X@X+X+Xo.<XBXVX2XK.P.2 % U 0 8.N _.c.^.B G BXMXNXbXAXAXGXM R.T.m.m.,.P Y Y f - j q Y f e 2.b.^.k.T.T.y.i p O .   eXtX&X[.[.}.",
"@X@X@X@X+X+X*XDX1XH.J.G % ` ^ I n.[ lX( c.C H.2XNXbXVXMXCXHXM E.U.T.T.K q Y T d X p 0 q 1 0 T.Q.n.Q.U.R.R.2.e u y @   yX&X}.}.}.",
"+X+X+X+X+X+X  *XI.G _ , 5 ^ B `.) z.lXP.( m 3Xf.MXNXNXVXMX4XB T.' T.,.U e d g k , _ a e , ` m.B.V.V.T.Y.Y.2.q e w t O   eXeXOXOX",
"+X+X+X+X+X+X+X+X  6 % 6 ^ V [ zXzXz.S.3XL.m 4XK.2XNXMXMXDXL.( n.I %.r e E l x & G I.3 * K M.V.Q.V.k.T.~./.r Y f l 9 b O pXpXpXpX",
"+X+X+X+X+X+X+X+X+X  . ~ ,.3.N ).3XK.D H.JXVX-X7Xf.7XNXBX5Xm c.~.P W e W Y e u % I.H.' 1 ` ^.M.n.V.V.T.E.2.r E w u -     eXeXyXyX",
"rXrXrXrXrXrXrXrX+X  . -.%.>.I M P.,XGXDXmXnXMX9Xj.s.:X>X).` m.E.=.d g h Y P a , H.H._.N ^ m.~.T.Q.Q.T.y.P Y r l 9 O   eXeXeX+X+X",
"rXrXrXrXrXrXrXrXrX  . =.7.<.0 M 2 _ _.6X5X2X8X7X8Xp.K.5XC M.n.Y.=.d #.g R Q 6 _ H.J.( I T.m.Y.Y.n.Q.b.2.P L q l p O   @X@X$XiX$X",
"rXrXrXrXrXrXrXrXrX  e.=.6.<.q 0 5 5 , _ _ G.5X4XS.P.H ) ! Q.Q.>.i w g g s 0 % (.P.S.m ` Q.n.T.T.T.R.,.U L q Q e t O   +X+X+X+X@X",
"rXrXrXrXrXrXrXrXrX  :.2.;.6.Y Y l 9 p X o o o.A A A _ M ` x.n.T.&.l s g T P $ (.).) B n.n.V.Q.T.b.3.r P Y L R Y u O   eXeXeXeXeX",
"rXrXrXrXrXrXrXrX  @ i 2.6.Y L ;.g x O @ q.q.t.O.O.X $ 3 V.B.V.m.y.P T s T e X / , m ] B.N.V.x.' I P Y s q Y Y L u @   eXeXtXtXtX",
"rXrXrXrXrXrXrXrX  + -.%.2.R <.*.Y w @ q.rXeX  t.. 4 $ &.n.B.B.m.~.0 s T h k X $ * K ^.x.N.V.n.!.3.q f f Y Y q i p @   eXrX@XrXrX",
"rXrXrXrXrXrXrXrX  b 5.2.<.>.<.Y Y 9 o   rXw.= . v X 9 Y.Q.B.V.m.%.Y T f d 9 & y l 2.M.V.x.V.Q.>.*.W d h h d e u X   eXeXrXrXrXrX",
"rXrXrXrXrXrXrXrXO i %.>.3.>.<.Y E y o     = > a y & =.T.V.B.x.T.P f s W 9 & y + e /.m.x.^.b.3.<.Y g W f d k u 8 @   eXeXeXeXeXyX",
"rXrXrXrXrXrXrXrX+ %.8.^ >.2.<.Y e y o   rXt.b a & u Y.b.V.!.n.T.P T h d u X y & =.E.Q.m.M.3.>.6.;.h g d ; p 8 @   eXeXeXeXeXeXyX",
"rXrXrXrXrXrXrX  ~ 1.$.3.>.>.L T g j o     = v 9 ; =.~.Q.N.N.M.,.E f g w p $ 4 i y.E.T.b.>.1.7.*.s #.h l & y @   rXeXeXeXeXeXeXeX",
"+X+X+X+X+X+X+Xo &.9.1.>.>.<.T T h z o     = 8 & ; =.b.V.N.B.^.>.q *.T l 4 X a * T.R.' 9.2.%.L R s s h l + O   rXeXeXeXeXeXeXeXeX",
"+X+X+X+X+X+X+X@ =.$.1.>.3.L s g g t o   eX  7 & e R.^.N.C.B.Q.>.Q /.s d p X a * Y.U.R.4.q Y R L W h f w y .   rXeXeXeXeXeXeXeXeX",
"+X+X+X+X+X+X+X8 =.7.<.1.<.Y T g f t o   eXyXo $ 2.U.N.N.C.B.U.1.U.R.e l 4 X     jXU >.<.6.<.<.<.Y f E w y .   rXrXrXrXrXpXpXiXiX",
"+X+X+X+X+X+Xo :.&.2.>.1.7.L T g g j o   @XyX  ~ ,.x.!.C.N.B.n.!.W.R.r i 3 4 eXeXi.  /.1.7.7.<.<.%.E e w u X   rX@X@XeXpXuXeXaXoX",
"+X+X+X+X+X+X$ ^ &.8.$.$.R s g #.h z O   rXaX{.~ r.m.B.B.V.B.n.B.W.U.i u 0 v eXeX= +X  p =.*.2.2.8.0 e u e z . OX#X@XiXpXeXtXaXoX",
"+X+X+X+X+X  a 4.*.7.<.7.L Y f h W w t @   aX  ~ Z.V.U.T.T.m.v.V.Q.3.e w i e.uXpX+X+X+X+Xo :.~ ,.r E E w s l O   #X$X$XuXtXgXgXoX",
"+X+X+X+X+Xo &.$.2.%.7.6.s d l d s Y l + o     r.r.v.R.R.m.v.v.v.n.>.l l w -.  pX+X+X+X+XeXo ~ -.2.*.h f T w p O   $X+XeX|. .].].",
"+X+X+X+X  X ^ 9.*.W *.6.d w u l l r e p X     r.c.B.Q.U.B.C.C.x.~.e s W w a jXo +X+X+X+XeXeX+ =.*.6.T g g f l t .   OXsX X{ { | ",
"+X+X+X+X  b ,.$.<.Y Y *.f l 9 w w e P 5 / X   r.Z.n.U.!.N.N.C.Q.&.W s s k * lXO.+X+X+XeXeXeXO i ,.I 0 f w d d u b .   aX X{ |  .",
"+X+X+X+X  4 5.1.7.R q Y q E d d l e V L.kX,   r.Z.c.T.T.n.B.V.n.0 Y R s k % kX6Xo +X+X+XeXo $ % M B I 0 z t j t u y 8 =  X{ |  .",
"+X+X+X+X  b ^ 6.R L R P K 0 E f d 0 ( 5X6XG , r.Z.m.m.m.V.!.n.3.Y q L E u % J.5X(.o     A G./ , ) F.).( % $ 5 5 5 a o    X{ |  .",
"+X+X+X+X  # t f R R I N 4.N K P P V L.qX>XP.< N M.^.B.V.V.!.E.Y Y s T 0 0 < P.2XkX$   F 2X2X5XJ 4X9X>XJ.P.H G _ , X t.aX X{ { | ",
"+X+X+X+X  . y i L I N ).lXC ' N ' m P.>X9X>X) V ' m.N.N.lXx.3.P T ;.e K ` m >XK.L., J K.,X;X9Xf.7X8X9Xs.8X0XqXJ.L.O.o   .X].].{.",
"+X+X+X+X  o 4 3 ' B ) 5X4XS 6XZ 3XJ.H p.g.qXG < B v.z.F.GXA.V.K ^ 5.3 V lXZ '.,X3Xa.S f.7X7X;Xg.9X,X8X8X8X8X,XJ.0X6X/ # tX.X XtX",
"+X+X+X+X..o.(.m lXZ 3X9X,XK.qXH.9X>XD K.7X,XJ G 6XA.h.3XFXh.F.v.c._ ).m zXJ.7X'.3Xa.J.K.7X;X7X8X>XqX,X'.7X8X9X>XqX6XG.% yX&X|.|.",
"+X+X+X  # *X6XL.3XJ.8X7X;X;X8X7X7Xp.f.D qX>X< G.FX<XI.FXMX5XDXDX5XH.FXVXBX9X7XD.P.< J.D 1Xg.s.'.9Xg.g.g.;X;X-Xf.7XqXG.# eXyX&XOX",
"+X+X+X+XA 5X5XqX4X1XqX9X,XK.,X9X7Xg.I.F H.G.X G.VXNXBXVXVXbXMXBXBXBXMXMX2X2X5XH.< I.H.S 1X4XqXJ.,X2X1XD 7Xg.g.F H.A > XXrX+XeXpX",
"+X+X+X+X% L.6X4XH.F J.3XkXG H.4X0X4XG.X o.o t.} <XcXcX9XMXNXNX2XBXBXBX1X5XG.A $ _ G.I.J J.zX6XG 4XqXH.F qXqXG.A A 7 XX+XpX#XeXuX",
"+X+X+X+X  < H J , , < H G < < S H H $ o O...+X..F '.g.D D f.f.F S H.D D S % # O.% < A , H H < , H H < < H H , $ o ..pXOX@X#XyXpX"
};
