/* XPM */
static char *c59776ba89264d1acd91ae0c3ddc1576Ru6JSETwltbvbvFc[] = {
/* columns rows colors chars-per-pixel */
"64 64 221 2 ",
"   c #3B3512",
".  c #3C3020",
"X  c #4B2B14",
"o  c #462D1B",
"O  c #532B14",
"+  c #573214",
"@  c #5B3113",
"#  c #5A3119",
"$  c #66340A",
"%  c #603612",
"&  c #763E1F",
"*  c #472D21",
"=  c #553624",
"-  c #553925",
";  c #6D3B23",
":  c #673D29",
">  c #733923",
",  c #6B3F34",
"<  c #0B5A06",
"1  c #0B5E0C",
"2  c #125D03",
"3  c #095910",
"4  c #105E16",
"5  c #265D1D",
"6  c #0C630B",
"7  c #1C640A",
"8  c #086319",
"9  c #176717",
"0  c #1A741A",
"q  c #20660E",
"w  c #24681A",
"e  c #27731D",
"r  c #327B1C",
"t  c #045E20",
"y  c #265F25",
"u  c #2A5E23",
"i  c #355825",
"p  c #0C6725",
"a  c #176927",
"s  c #196C25",
"d  c #197228",
"f  c #0B6A33",
"g  c #246124",
"h  c #2A6122",
"j  c #246128",
"k  c #287A26",
"l  c #37722D",
"z  c #654029",
"x  c #6A4134",
"c  c #695A35",
"v  c #7C5834",
"b  c #7B5C3B",
"n  c #477735",
"m  c #457C36",
"M  c #497A36",
"N  c #4B753C",
"B  c #467B39",
"V  c #49793A",
"C  c #56703D",
"Z  c #606139",
"A  c #536E46",
"S  c #4E7541",
"D  c #4D7A44",
"F  c #527748",
"G  c #63705D",
"H  c #90571F",
"J  c #855624",
"K  c #895524",
"L  c #86572C",
"P  c #975E2B",
"I  c #934F3F",
"U  c #885338",
"Y  c #8D533B",
"T  c #925E32",
"R  c #995F34",
"E  c #90533B",
"W  c #A15F2C",
"Q  c #9E6325",
"!  c #90612C",
"~  c #9C632B",
"^  c #8A633F",
"/  c #966232",
"(  c #9B6233",
")  c #966936",
"_  c #A26324",
"`  c #A0632C",
"'  c #BE752C",
"]  c #B77236",
"[  c #C17527",
"{  c #C2742A",
"}  c #A87848",
"|  c #B47B42",
" . c #B17E4F",
".. c #A66C54",
"X. c #AA6B55",
"o. c #A57B52",
"O. c #3A821D",
"+. c #2E8325",
"@. c #3A8527",
"#. c #388A36",
"$. c #3D9238",
"%. c #588F1A",
"&. c #5A911A",
"*. c #428C29",
"=. c #49952C",
"-. c #428836",
";. c #4D8E3F",
":. c #459437",
">. c #4C923E",
",. c #53943E",
"<. c #579A39",
"1. c #659C28",
"2. c #51A13E",
"3. c #6EAB2E",
"4. c #67A639",
"5. c #76AE31",
"6. c #76B533",
"7. c #7BB534",
"8. c #7EBA35",
"9. c #75B43B",
"0. c #7CB43A",
"q. c #7EBA3B",
"w. c #7DC234",
"e. c #4C8E43",
"r. c #518D44",
"t. c #568B4D",
"y. c #4C9241",
"u. c #539341",
"i. c #58914A",
"p. c #588A50",
"a. c #5C9252",
"s. c #618D58",
"d. c #56A245",
"f. c #66AB45",
"g. c #6AB246",
"h. c #6BB44C",
"j. c #76B747",
"k. c #7BBD4C",
"l. c #63AF54",
"z. c #6AB555",
"x. c #77BB55",
"c. c #7DC247",
"v. c #7BC557",
"b. c #83BB34",
"n. c #87BB3C",
"m. c #84BD3C",
"M. c #93BD3D",
"N. c #87C638",
"B. c #86C33C",
"V. c #8CC63E",
"C. c #8CC93E",
"Z. c #90C43D",
"A. c #91CA3D",
"S. c #84BC43",
"D. c #8FBF45",
"F. c #83BE4B",
"G. c #92BE43",
"H. c #9FBF7F",
"J. c #C28C78",
"K. c #C6917C",
"L. c #85C343",
"P. c #8DC642",
"I. c #85CA43",
"U. c #8DCA42",
"Y. c #85C44B",
"T. c #8CC54A",
"R. c #85C94B",
"E. c #8DCA4A",
"W. c #92C543",
"Q. c #99C746",
"!. c #91CA43",
"~. c #94C54A",
"^. c #91CB4B",
"/. c #9CCC4B",
"(. c #8CD249",
"). c #97D349",
"_. c #92D24D",
"`. c #83C552",
"'. c #8AC552",
"]. c #85CB53",
"[. c #8CCD54",
"{. c #82C659",
"}. c #85CB59",
"|. c #8ACC5A",
" X c #91CB52",
".X c #8BD25C",
"XX c #96D455",
"oX c #A3CE4D",
"OX c #A2D14F",
"+X c #A4D352",
"@X c #A8D85A",
"#X c #B7DA5C",
"$X c #8ACA69",
"%X c #94C765",
"&X c #93C966",
"*X c #94C76C",
"=X c #98C66B",
"-X c #93C86C",
";X c #8BD264",
":X c #93D162",
">X c #8CC672",
",X c #8FC379",
"<X c #94C670",
"1X c #99C372",
"2X c #93C871",
"3X c #90C57B",
"4X c #9DC37C",
"5X c #BADF62",
"6X c #A0C37C",
"7X c #8FE068",
"8X c #BCE465",
"9X c #BCE666",
"0X c #C3E76A",
"qX c #C4EB6C",
"wX c #C8EE71",
"eX c #C6F074",
"rX c #9DBD84",
"tX c #A4BE86",
"yX c #C59283",
"uX c #9DC282",
"iX c #A1C283",
/* pixels */
"P.P.P.P.P.P.P.P.P.V.V.P.U.P.P.!.P.!.!.P.P.P.P.P.P.P.P.P.P.P.P.P.P.P.V.V.V.V.V.P.V.V.V.P.V.V.C.C.U.U.P.P.P.P.P.P.V.V.W.W.W.W.W.P.",
"P.P.P.P.P.P.P.P.V.P.P.V.P.!.!.P.P.!.!.P.P.P.P.P.P.P.P.P.P.P.P.P.P.P.V.V.C.U.V.V.V.V.V.P.V.V.C.C.U.U.P.P.P.P.P.P.C.U.W.W.W.W.P.U.",
"P.P.P.P.P.P.P.P.V.P.P.P.P.!.!.P.P.!.U.P.P.P.P.P.P.P.P.P.P.P.P.P.P.P.P.P.U.V.V.V.V.V.V.V.V.V.C.C.P.P.P.P.P.P.P.P.C.U.U.P.P.P.P.U.",
"P.P.P.P.P.P.P.P.P.V.V.U.!.P.P.U.V.U.P.P.P.P.P.P.P.P.P.P.P.P.P.P.P.P.P.P.P.C.V.V.V.V.V.P.V.V.C.C.P.P.P.P.!.P.V.V.C.C.C.V.V.V.V.U.",
"P.P.P.P.P.P.P.P.P.V.V.P.U.P.P.P.V.P.P.V.P.P.P.P.P.P.P.P.P.P.P.P.P.P.P.P.P.P.V.V.V.V.V.P.V.V.C.C.W.P.P.U.!.U.V.V.V.V.C.C.C.V.V.P.",
"P.P.P.P.P.P.P.P.V.P.P.P.P.U.P.V.V.P.P.V.P.P.P.P.P.P.P.P.P.P.P.P.P.P.P.P.P.P.V.V.V.V.V.P.V.C.C.C.W.W.P.!.!.U.V.V.V.V.V.C.C.V.P.W.",
"P.P.P.P.P.P.P.P.P.P.P.P.P.U.P.V.V.V.P.P.P.P.V.P.P.P.P.P.P.P.P.P.V.V.V.P.P.P.V.V.V.V.V.P.V.V.C.C.W.W.W.U.U.U.V.P.W.P.V.V.V.P.W.W.",
"P.P.P.P.P.P.P.P.U.P.P.U.!.P.P.P.V.V.P.P.P.P.V.P.P.P.P.P.P.P.P.P.V.V.V.P.P.P.P.V.V.V.V.P.V.V.C.C.Z.Z.V.V.U.U.W.P.W.W.P.V.V.W.W.~.",
"I.I.P.P.P.P.U.P.P.P.P.P.P.P.V.V.P.P.U.V.V.V.N.A.A.A.Z.W.W.W.!.C.D.V.N._.XXXXU._.2X-X-X-X%XV.V.V.W.P.P.V.U.P.W.~.U.C.!.N.!.C.P.C.",
"U.U.P.P.P.P.P.V.P.P.P.P.P.P.V.V.P.V.U.V.P.P.V.N.N.!.!.W.W.P.U.V.W.).I.4.<.4.9.R.3X>X>X>X>XV.V.V.W.P.P.V.U.P.W.W.C.N.C.N.U.V.V.U.",
"P.P.P.P.P.P.P.P.P.P.P.P.P.P.V.V.V.N.C.N.U.P.E.E.E.E.!.V.V.V.P.P.P.E.`.e 4 %X*X*Xy.y.y.y.>.*X*X%XW.P.P.P.U.P.W.W.U.V.!.!.!.P.P.!.",
"W.W.~.W.P.P.P.U.P.P.P.1X=X=X=X=X=X=X*X*X1XL.Y.`.].Y.L.N.C.V.P.T.[.|.;X*X*X>.>.>.y.y.y.y.y.>.>.>.1XrXP.P.U.P.V.V.C.V.U.P.W.W.W.W.",
"oXoX+X/.P.P.V.U.P.P.P.1X-X-X-X-X-X-X%X-X1XXXk.f.h.k.E.N.N.N.P.T.x.z.l.2X2Xy.y.y.y.y.y.>.y.r.r.u.<XH.P.P.P.P.V.V.V.V.P.V.W.+XOX/.",
"5X8X8X+XW.!.P.U.P.P.y.y.y.y.y.y.y.y.y.y.>.%X*X*X2 *.].I.C.U.T.F.w 4 y.>.y.y.y.y.y.y.y.m B V V.V.P.P.P.P.P.P.P.P.C.V.P.V.Q.8X8X#X",
"0XqXqX+XW.!.P.U.P.P.P.:.y.y.y.y.>.>.y.y.y.u.u.u.4XiX}.c.B.P.T.Y.p.i.y.>.y.y.-.m m m -.P.V.V.V.V.V.V.P.P.P.P.P.P.V.V.V.V.!.8XqX5X",
"8X8X8XoXV.!.V.P.P.P.P.y.y.y.y.y.:.>.y.y.y.y.y.>.*XuXv.c.I.P.Y.F.y.y.y.y.>.y.m m m m m P.V.V.V.V.C.V.V.P.P.P.P.P.U.V.V.Z.Q.8X0X#X",
"P.W.W.W.W.W.P.V.V.V.V.V.V.U.U.U.C.N.y.y.y.y.r.y.y.,.*X0 +.{.'.Y.y.>.>.g y V B.n.q.b.V.C.U.U.U.U.V.U.U.U.!.U.U.U.V.V.V.P.P.P.P.P.",
"P.P.W.W.W.W.P.V.V.V.V.V.V.U.U.U.U.U.p.t.t.t.u.y.y.,.$X8 k {.[.F.r.y.e.5 h S 8.0.8.b.V.U.U.U.U.P.!.!.!.!.!.!.U.U.V.V.V.V.P.P.P.P.",
"P.P.P.W.W.P.P.V.V.V.V.V.V.U.U.U.U.U.U.P.P.P.s.>.>.>.y.8 k v.t.>.y.e.j m N B.8.0.7.b.V.U.!.U.U.U.!.!.!.U.U.U.!.!.V.V.V.V.P.P.P.P.",
"P.P.P.P.P.P.P.V.V.V.V.V.V.U.U.P.P.P.P.V.m.m.L.E.XXd.a e.r.v.F B g g B y g g ,X<X<X<X<X<X<X<X<X<X<XrXV.V.V.U.!.!.U.U.C.C.C.C.U.U.",
"P.P.P.P.P.P.P.V.V.V.V.V.V.U.U.P.P.P.P.P.m.8.m.U.I.d.y ;.y.`.F V g h V g g g >X-X-X-X-X-X-X-X-X-X-XrXV.V.V.U.!.!.!.!.!.!.!.U.U.U.",
"P.P.P.P.P.P.P.V.V.V.V.V.V.U.4X&X-X*X-X-X*X&Xm.P.m m M g y w g g y g g y.>.y.y.y.y.y.y.y.y.y.y.y.y.,.&X2X<XU.!.!.U.U.U.U.U.U.U.U.",
"P.P.P.P.P.P.P.V.V.V.U.tXiXiXu.,.,.u.u.u.,.,.a.s.;.e.B       c b b Z g m B y.>.y.y.;.m m m m m m m l u.-X%X!.U.U.U.U.U.U.U.C.C.C.",
"P.P.P.P.P.P.W.V.V.V.U.=X*X*X,.y.y.>.y.y.y.>.y.>.y.y.V X X X U Y Y b y V m y.y.y.y.r.V V V V V V V m y.2X<XU.V.V.U.U.U.U.U.C.C.C.",
"V.V.V.V.C.C.C.C.C.C.-X>.y.y.>.y.y.e.g g g >.y.y.V C O P W E X...K.J.Y h g g g g P.P.P.P.P.P.P.P.U.!.V y.:.&XV.V.C.V.C.C.V.!.V.V.",
"V.V.V.V.V.C.C.C.N.C.>Xy.y.y.r.i.t.t.i w w e.e.e.B N O R ( U ....K.J.E u g h h g P.P.P.P.P.P.U.P.V.U.F i.a.4XV.V.C.N.C.!.!.!.!.!.",
"U.V.V.V.V.C.C.C.N.C.y.y.y.y.!.!.P.P.W.V m g g g g i Y Y Y ; ....X...E V M -X-X%X%X*X*X*X%XP.P.V.V.V.V.V.V.V.V.V.!.C.U.P.P.P.P.P.",
"U.U.V.V.V.V.V.V.U.V.y.y.r.W.Z.Z.W.W.%X>.u.B B B U Y X.K.K.X ; > Y b V V B >.>.>.>.>.>.y.>.=X*X*XV.V.V.V.V.V.V.V.C.!.P.L.^.^.^.^.",
"C.C.V.V.V.V.V.V.C.V.y.y.e./.oXoXW.W.2Xy.y.V B M Y Y ..K.yXX ; > Y b B B V y.y.y.y.y.y.>.y.-X*X%XV.V.V.V.V.V.V.V.V.U.P.P.T.0.m.m.",
"C.C.C.V.V.V.V.V.N.V.>.W.oX8XqX8X&X>X:.B V m !.U.E Y ......E ~ _ X * P.P.P.P.S V V V M u.y.y.y.>.2XrXV.V.V.V.V.V.C.V.P.T.S.&.&.1.",
"C.C.C.V.V.V.V.V.U.U.W.W./.8XwX5X*X$X>.m N !.!.P.P.P.Y E E O P ~ U.U.U.P.P.P.P.P.P.P.P.D B m ;.y.,.i.4XV.V.V.V.V.C.V.P.T.S.%.%.1.",
"C.C.C.C.V.V.V.U.U.V.W.W.oX8X0X#X*X$Xy.V N !.!.P.P.P.I E Y X T _ U.U.U.P.P.P.P.P.P.P.P.N V V e.y.y.,.-XV.V.V.V.V.C.!.P.P.F.1.1.3.",
"V.V.V.V.V.V.V.V.V.V.V.U.!.!.uX*Xy.r.n V.U.!.!.!.P.U.U.o X Q % # ; , U.U.U.U.P.!.!.!.P.P.V.P.F V V B >.P.P.P.P.P.C.U.V.V.L.L.m.m.",
"V.V.V.V.V.V.V.V.U.V.V.V.V.V.6X2Xy.r.M V.U.!.!.!.U.U.U.. o ~ $ @ & ; V.V.P.P.P.P.P.P.P.P.P.P.G S S D e.P.P.P.P.P.U.U.U.U.E.E.E.E.",
"V.V.V.V.V.V.V.V.V.V.V.V.V.V.iX2Xy.r.B V.U.!.!.!.U.U.U.U.U.~ K J K v U.P.!.U.!.U.P.P.P.U.U.P.P.V.P.P.m P.P.P.P.P.P.P.P.P.P.P.P.P.",
"U.U.U.U.U.U.U.U.V.V.V.U.U.!.uX2XB S U.U.U.!.!.!.U.U.U.U.U.; # + K v V.V.!.V.U.C.P.P.P.P.P.P.P.U.P.P.P.P.P.P.P.P.P.P.P.P.P.P.V.V.",
"U.U.U.U.U.U.U.U.U.U.U.U.U.U.4X2XS A !.!.U.U.U.!.U.U.U.C.C.> @ @ K v V.V.Z.n.W.U.U.P.P.P.P.P.P.!.P.P.P.P.P.P.P.P.V.U.U.C.C.!.!.A.",
"U.U.U.U.U.U.U.U.U.U.U.U.U.U.F m !.!.!.U.U.U.U.U.U.U.U.C.P.' H K > z Z.W.W.Z.!.!.P.P.P.U.P.P.P.!.P.P.P.P.P.P.P.P.N.V.V.V.V.V.V.C.",
"U.U.U.U.U.U.U.U.U.U.U.U.U.U.U.U.U.U.U.U.U.U.U.U.U.U.U.V.P.[ Q ~ / ^ M.oXoXOX/.P.P.P.P.!.U.P.P.!.P.P.P.P.P.P.P.P.C.U.U.P.P.P.P.P.",
"U.U.U.U.U.U.U.U.U.U.U.U.U.U.U.U.U.U.U.U.U.U.U.U.U.U.U.P.P.{ _ Q Q ) Q.5X8X8X+XP.P.P.P.U.P.P.P.!.P.P.P.P.P.P.P.P.P.P.P.P.P.T.T.T.",
"U.U.U.U.U.U.U.U.U.U.C.C.U.U.U.U.C.U.!.!.U.P.U.U.N.C.U.N.!.; @ + K v Q.8XwXeX+XG.P.P.P.P.P.P.P.P.!.U.C.C.C.C.!.!.T.T.P.P.U.U.U.U.",
"U.U.U.U.U.U.U.U.C.U.U.U.U.P.P.U.U.U.!.!.U.P.U.U.C.P.P.U.!.& $ $ J v Q.@X@X@X/.~.P.P.P.P.P.P.P.P.!.U.C.C.C.C.U.!.T.P.P.P.U.U.U.U.",
"U.U.U.U.U.U.U.U.P.U.U.!.U.U.!.!.U.U.!.!.U.U.U.U.I.P.P.^.U.[ { ' ; : ^.P.W.V.W.W.P.P.P.P.P.P.P.P.!.U.C.C.C.C.U.!.P.P.P.P.P.P.P.P.",
"U.U.U.U.U.U.U.U.U.U.U.!.!.!.!.!.U.U.!.U.U.U.U.U.E.Y.'.Y.T.B.} { ~ ( J B.P.B.!.P.P.P.P.P.P.P.P.P.U.U.C.C.C.C.U.U.P.P.P.P.P.P.P.P.",
"U.U.U.U.U.U.U.U.V.V.C.C.!.!.!.A.P.I.U.P.P.P.I.U.R.j.f.f.k._.| { ` ( K B.V.U.U.P.P.P.P.P.P.P.P.P.U.U.C.C.C.C.U.U.U.P.P.P.P.P.P.P.",
"V.V.V.V.V.V.V.V.C.V.V.U.U.!.!.U.P.P.P.P.P.P.P.E.[.4.q 7 O.].x ; + @ K V.N.C.V.P.P.P.P.P.P.P.P.P.U.U.C.!.C.C.U.U.P.P.P.P.P.P.P.P.",
"V.V.V.V.V.V.V.V.!.U.U.U.U.E.E.E.P.P.P.P.P.P.T.T..Xf.9 9 @.;X} ] ! T & U.N.V.P.W.P.P.P.P.P.P.P.P.U.U.C.!.!.C.U.U.P.P.P.P.P.P.P.P.",
"V.V.V.V.V.V.V.V.P.P.P.P.L.L.Y.Y.P.P.P.P.P.P.T.'.c.f.a a #.;X| [ ~ R ; V.V.V.Z.Z.P.P.P.P.P.P.P.P.U.U.C.!.!.C.U.U.U.U.U.U.!.!.!.!.",
"V.V.V.V.V.V.V.V.P.T.T.Y.h.w 0 k k.(.C.^.!.R.d.d a y.$XY.Y.E.| [ ` ~ K W.P.P.P.P.V.V.V.V.V.U.U.U.I.E.!.Z.A.U.U.U.C.C.P.W.W.P. Xc.",
"V.V.V.V.V.V.V.V.^.^.T.Y.g.2 9 w Y._.6.L.!.XX>.a a :.$XY.L.P.} ] / T K U.P.P.P.P.V.V.V.V.V.V.P.U.I.U.P.b.q.E.U.b.N.C.!.!.P.T..Xv.",
"V.V.V.V.V.V.V.V.B.P.E.E.j.7 7 2 j.].c.F.E.[.y.p s -.|.m.V.P.x ; + @ K P.P.P.W.!.V.V.V.V.V.P.P.P.).V._.[.}.|.E.V.N.A.A.W.T.}.$Xv.",
"V.V.V.V.V.V.V.V.C.P.P.T.`.f.x.h.@.r O.f.L.`.y.p 9 @.|.m.m.m.| [ ~ / ; P.P.P.!.!.V.V.V.V.P.P.P.P.P.B.'.=.e r 1.C.C.A.V.P.4.r +.+.",
"V.V.V.V.V.V.V.V.C.C.E.E.[.[.|.v.k 9 9 z.R.:Xy.s k ,.:XT.S.0.} ' Q R ; P.P.P.W.^.V.V.V.V.P.P.P.P.!.P.}.k 4 9 =.I.R.V.n.@Xh.< 6 9 ",
"V.V.V.V.V.V.V.V.!.N.P.T.S.^.R.`.s d d z.R.].-.1 < @.'. XT.> @ + @ @ @ ; : P.P.W.V.V.V.P.P.P.P.P.).E.`.r 3 1 :.7X;X[.V. Xg.< 9 e ",
"V.V.V.V.V.V.V.V.^.P.L.F.S.P.L.`.d p a l.XXR.f.@.=.4.F.o. .R / / / / / L L P.P.W.N.V.V.P.P.P.P.P.P.^.^.4.=.2.:.$.$.g.XXXXh.6 9 w ",
"V.V.V.V.V.V.V.V.~.P.k.j.S.L.E.`.d a d h.w.B.}.g.j.j.9.' ' Q Q Q Q Q Q J L P.P.P.V.V.V.P.P.P.P.P.P.m.Z.).(..X:.1 p *.R.E.g.6 9 w ",
"V.V.V.V.V.V.V.V.T.T.S.0.0.Y.'.Y.s 8 9 z.}.Y.m.7.6.7.> @ + # # + + + + + + > V.V.P.P.P.P.P.P.P.P.I.E.E.P.L.}.$.p p $.[.E.j.2 1 6 ",
"V.V.V.V.V.V.V.V.T.T.S.S.S.S.Y.S.#.@.*.x.`.L.L.L.8.q., = - - = - - = = = = x V.V.P.P.P.P.P.P.P.P.I.L.P.P.I.}.#.t f #.].E.k.@.@.=.",
"V.V.V.V.V.V.V.V.T.T.T.T.S.m.q.m.x.j.j.`.L.P.P.L.B.B.L.P.P.U.U.C.V.V.V.C.C.V.V.V.P.P.P.P.P.P.P.P.L.S.m.b.B.}.:.p f #..XE.T.j.g.`.",
"V.V.V.V.V.V.V.V.T.T.T.^.L.b.8.8.8.5.5.7.b.U.E.I.P.P.U.E.E.U.P.U.U.U.C.C.C.C.U.U.P.P.P.P.P.P.P.P.S.m.m.b.B.].:.3 p :.:XE.L.S.9.0.",
"V.V.V.V.V.V.V.V.P.P.P.P.L.m.b.b.b.b.V.N.N.C.C.I.U.U.E.E.E.E.I.U.U.U.C.C.C.C.U.U.V.P.P.P.P.P.P.P.P.m.m.b.P.'.<.k k <.`.L.L.L.S.n.",
"V.V.V.V.V.V.V.V.P.P.U.P.P.V.V.V.N.N.Z.V.N.N.N.I.U.U.E.E.E.E.U.U.U.U.C.C.C.C.U.U.P.P.P.P.P.P.P.P.P.n.m.b.7.q.j.x.h.j.T.L.E.L.P.~.",
"V.V.V.V.V.V.V.V.P.P.U.U.U.U.!.!.!.!.V.V.N.V.N.C.U.U.U.E.E.E.!.!.C.U.C.C.C.C.U.C.P.P.P.P.P.P.P.P.P.L.V.b.5.3.0.'.9.9.P.V.).C.P.W.",
"V.V.V.V.V.V.V.V.V.V.C.U.U.V.V.P.V.W.V.W.A.A.V.V.C.U.U.U.U.!.!.!.V.U.C.C.C.C.U.V.P.U.P.P.P.P.P.W.!.!.P.m.m.m.S.n.0.0.~.b.U.N.P.W."
};
