/* XPM */
static char *_b000fa82f964f76c9f0242ce24d304eBP6WKrw2wnHpQ0PU[] = {
/* columns rows colors chars-per-pixel */
"64 64 254 2 ",
"   c #010101",
".  c #0A0401",
"X  c #040B02",
"o  c #0B0B02",
"O  c #05060B",
"+  c #060908",
"@  c #0C0A09",
"#  c #120602",
"$  c #120B02",
"%  c #170B07",
"&  c #031301",
"*  c #0C1402",
"=  c #041C01",
"-  c #0A1C02",
";  c #0D1509",
":  c #141302",
">  c #1A1303",
",  c #191B07",
"<  c #14120A",
"1  c #1A140A",
"2  c #0B0C11",
"3  c #191911",
"4  c #231A07",
"5  c #231C11",
"6  c #0B2905",
"7  c #162507",
"8  c #1B2302",
"9  c #142C02",
"0  c #1C2C03",
"q  c #1B2B0B",
"w  c #093A07",
"e  c #0B340A",
"r  c #153303",
"t  c #1C3304",
"y  c #123E03",
"u  c #1C3A04",
"i  c #13340B",
"p  c #1B340B",
"a  c #143A0A",
"s  c #1B3B0C",
"d  c #082112",
"f  c #1C2815",
"g  c #0A3C14",
"h  c #143C13",
"j  c #1C3B12",
"k  c #183B16",
"l  c #242403",
"z  c #2B2502",
"x  c #242C03",
"c  c #2D2B03",
"v  c #24230B",
"b  c #2C260B",
"n  c #252C0A",
"m  c #2C2C0B",
"M  c #322C03",
"N  c #352806",
"B  c #332C0B",
"V  c #243204",
"C  c #2C3304",
"Z  c #283B06",
"A  c #24340B",
"S  c #2B330C",
"D  c #243A0C",
"F  c #2A3C0C",
"G  c #333206",
"H  c #33320B",
"J  c #37380B",
"K  c #252313",
"L  c #2C2513",
"P  c #2A2419",
"I  c #2A2A18",
"U  c #322C13",
"Y  c #362B19",
"T  c #243B13",
"R  c #2A3816",
"E  c #363512",
"W  c #3D3E13",
"Q  c #3A381A",
"!  c #1E3529",
"~  c #312C24",
"^  c #3A3924",
"/  c #463C08",
"(  c #533D0F",
")  c #473B18",
"_  c #553F11",
"`  c #443B24",
"'  c #453A26",
"]  c #0A450B",
"[  c #184509",
"{  c #0B4412",
"}  c #094818",
"|  c #0D4C1C",
" . c #1B4313",
".. c #16471A",
"X. c #09511C",
"o. c #284708",
"O. c #3B4C05",
"+. c #334109",
"@. c #374908",
"#. c #2C5201",
"$. c #2C5607",
"%. c #335205",
"&. c #3A5706",
"*. c #335C05",
"=. c #34540B",
"-. c #3C530D",
";. c #3B5B0C",
":. c #274616",
">. c #2C4B13",
",. c #2C4B1B",
"<. c #384717",
"1. c #3D441B",
"2. c #2B5318",
"3. c #385517",
"4. c #296308",
"5. c #356205",
"6. c #3A6509",
"7. c #3A7607",
"8. c #3D6317",
"9. c #2F7812",
"0. c #3A741B",
"q. c #0C4B22",
"w. c #184923",
"e. c #1A5727",
"r. c #264627",
"t. c #374624",
"y. c #295828",
"u. c #35592A",
"i. c #265B34",
"p. c #365132",
"a. c #1F6734",
"s. c #316830",
"d. c #47470C",
"f. c #58480D",
"g. c #475609",
"h. c #43540D",
"j. c #435C0D",
"k. c #51590B",
"l. c #494717",
"z. c #45431B",
"x. c #434B1B",
"c. c #534415",
"v. c #574717",
"b. c #554D1C",
"n. c #5A4B1C",
"m. c #435214",
"M. c #475816",
"N. c #4C5B12",
"B. c #4D5D1B",
"V. c #565417",
"C. c #535A15",
"Z. c #5C541D",
"A. c #545C1C",
"S. c #5B5B1D",
"D. c #654E1C",
"F. c #665816",
"G. c #63541D",
"H. c #635B1C",
"J. c #6B5B1E",
"K. c #48680B",
"L. c #43740C",
"P. c #496413",
"I. c #4B6C14",
"U. c #486718",
"Y. c #576517",
"T. c #546916",
"R. c #55641D",
"E. c #5B631C",
"W. c #457317",
"Q. c #497214",
"!. c #577516",
"~. c #62611D",
"^. c #6D661B",
"/. c #69661E",
"(. c #454727",
"). c #4B4B24",
"_. c #4B432B",
"`. c #4C4B2C",
"'. c #544B23",
"]. c #574A29",
"[. c #544C2B",
"{. c #495826",
"}. c #5C5423",
"|. c #555826",
" X c #5D5D23",
".X c #5B542B",
"XX c #5D5B2B",
"oX c #494731",
"OX c #564D35",
"+X c #425233",
"@X c #5B5535",
"#X c #5E5B33",
"$X c #5C5D3A",
"%X c #645523",
"&X c #6B5525",
"*X c #645B24",
"=X c #6A5B24",
"-X c #64542B",
";X c #6A562C",
":X c #645C2A",
">X c #6C5B2B",
",X c #715923",
"<X c #715B2A",
"1X c #615332",
"2X c #6A5737",
"3X c #645C33",
"4X c #6C5C33",
"5X c #635C3B",
"6X c #476824",
"7X c #566522",
"8X c #5D6324",
"9X c #556A25",
"0X c #5D622A",
"qX c #457423",
"wX c #587033",
"eX c #636223",
"rX c #6B6325",
"tX c #646926",
"yX c #64622B",
"uX c #6B642C",
"iX c #75652B",
"pX c #6A7B28",
"aX c #676436",
"sX c #776735",
"dX c #707533",
"fX c #757134",
"gX c #7D7336",
"hX c #797839",
"jX c #675A42",
"kX c #6D6B49",
"lX c #7B7746",
"zX c #7E7D4B",
"xX c #7C7656",
"cX c #826A35",
"vX c #8A6F36",
"bX c #867539",
"nX c #897638",
"mX c #867A44",
"MX c #927B46",
"NX c #837B54",
"BX c #837856",
"VX c #8A7D59",
"CX c #857C63",
"ZX c #768531",
"AX c #7C844B",
"SX c #768848",
"DX c #7B8A55",
"FX c #828B3B",
"GX c #888746",
"HX c #958349",
"JX c #848355",
"KX c #88845B",
"LX c #8A8661",
"PX c #958469",
/* pixels */
": : : n o > $ > $ : : : n S V R.Q.W.6XA A D A j | h s j R & i 2.s.= * X <.8.I.R.W > > > $ : : * = - - & O # : o o o o     # # # ",
"P   o LX$XLXBXVXVXP   o LXJXJXhXGXFXGXAXAXAXDX>.} :.AXDXJXzXSXQ.I.x._.OX{.j.P.m.).(.`.`.^ X . PXVXLXPX> X ' BXxXBXJXJXaXKXBXKXKX",
"BX4 LX%XfX=XmX<XsXBX4 LX%X*X>XbXF.F.G.%XHXgX*XzXy zXF.hX=XHX/.pX;.V B Q <.3.u  .y.:.C z.E 3 BX&X&XfX=XlXA lXG.*X*XmXfXC.O.S.H.fX",
"-X% 3X=XZ.bXJ.=Xf.-X% 3X=XJ.,XH.fXH.=X&XvXJ.iX*Xu :XcXJ.H.J.H.E.+.C b H C F u.e.X.y.t H c , @X,XcXH.V.H.R.=X&X>X;XG.eXN.P.O.C.eX",
"5X# #X}.Z.*XS.eXS.5X# #X}.=XH.Y.T.E.*X<X<XiXsX:Xo.3Xn.0X0X Xb.W l l H c l D h { X.{ r m U @ OXv.>X XH.~.7X*XsX'.;X;X:XtXj.-.h.uX",
"$Xo 5XuX*XS.R.N.C.$Xo 5XuXrXj.*.6.;.S.*X=X>XiX:X9 3X:X7XN.A.  B   m c c m l 0 p i p l c H q $XS.R.B.8XE.T.eXc.}.:X&Xv. XM.+.V.Z.",
"                                        M c t i ..k x                     J l..Xl..X:.:.b.M.=.%.9X        n c c l l l v 4 l m q ",
"| ,.:X&X=X*Xh.M.}.=X>X>X>XJ.OX> c M c c M M x V j A c M v @ % 1 < < f i w a a p p a | | T a w w 8.6.7.I.Z q 9 7 & X X * X o + O ",
"| ,.:X=X=X=XuX*X&X%Xn.;X=XF.[., c M c c N N c m x c M M v   jXBXAX9X6X0.0.0.0.qX6XwX] { u.i.a.a.3.Q.L.!.hXSX6XqXU.U.6XqX6X9XxX. ",
"q.,.XX=X&X&X;X;X;X>Xc.}.H.E.`., z c c G B z z G M M M M v oXsXG.E.O.5.5.5.*.*.;.&.7XwX2.R w } g t -.I.hX&XS.O.;.*.4.4.5.5.O.yXxX",
"} t.3X=X=X;X>X>X<X%Xv.V.E.j.<., z c c c c z M c M c M M b _.4X4X%XA.-.m.m.m.-.l.:X:X{.V c t.i s n V Z >X&X%X*XO.-.-.-.-.-.S.-XjX",
"d R 4X=X=X:X%X%XG.*X8XR.P.*.<., z c G G W 0 F 0 c c z M b ' &X&Xf.&X*XV.S.A.M.*X>X*X{.r M l 0 x C V D aX=Xn.*X XV.*X=XV.S.iX;XOX",
"@ P 3X*X=X=XG.f.*XeXP.5.*.#.<., E G c 0 y.....u.V c z B v oX>Xc.-X-X>X( >X:X'.d.*X*X7XF J N c c M x s 3Xv.;X>X:Xc.%X%Xd.V.G.;X5X",
"X 3 [.3X) 3X}.l.XX7X;.$.#.3.R * L c l q ..g e...9 x m b , P 1X) 5X:Xd.yX3X) 1X4Xc.eXh.D S N B x c 9  .`.) 2X4X}.}.3X) ) ;XD.].' ",
"    L Q Q Q Y Q Q R D D T R X X < 4 , f e w { [ p 7 , 5   o Y U W +.O.O.O.m.+.+.+.@.Q.qX[ A r 9 9 ..q.j E E z.d.g.h.x.Q Y ^ ^   ",
"O   P ' ' ' ' ' I t.^ (.t.t.X   ' ' ^ t.t.>.qXW.<.K 3 5 P K P K Q J m.P.L.Q.9X{.{.R.pXpXdXdXx.{.{. .X.,.{.{.B.pX!.Q.R.^ (.R j j ",
"  ~ xX-X-X:XsXhXg.h.E.G.mX3XjX^ kX>XmXuXfXhXT.%.G m c z.H B c B `.C G B.!.dXG.&X<XnXF.~.,XcXMXfX:XDX2.lXV.GXH.nXZX!.FXS.eX-.;.6.",
"+ P :XJ.J.=X>X Xh.%.h.uX,XG.[.L %XnX^.^.G.eX9XV G z G G l.c C x C G z C +.yX>XG.F.^.bXH.&XJ.MX=X,X}.F yXnX^.&X,X}.8XH.,X;X|.@.#.",
"2 K 4XG.=X*X*X=XY.W.;.d.&X%X.XY -X=XH.E.S.:X6Xz M J c c M C s ....p 1.l 0 yX=XrXY.Y.Y.H.=X=X>X<XbX0Xn :XJ.=XH.%X[.4 aX;X*XZ.*X X",
"d R :X%Xc.<X:XG.E.;.-.V.>X;X[.L c.F.E.Y.S.:Xr H J W c c c C e.e.X. .V Z 0 yX=XeXP.P.I.Y.H.&X=XcXiX#XI }.F.Y.k.Y.:X4 2X%Xn.&X*X:X",
"| :.A.c.;X>X}.v.V.@.-.:Xb.3X) 5 .XE.j.;.7Xx.6 b M z.M c c x g q.| i V Z 0 yX*XfXO.;.$.h.eX=X=X<X=X5X1 [.eXB.&.Y.)., `.>Xf.rXuXc.",
"] qXN.d.d.d.z.z.z.1.(._.Q ' % . ^ -.$.[ >.A e n c J M c c C i k i n c c 0 :X=XrXB.%.%.C.*X>X&X&X*X5X# 4 <.<.>.1.K   o ' ' _._.' ",
"] W.T./.R.;.- - - & * * - ,   + * p w ] e 6 w n c c c c c c V D 0 c M c 0 :X=X<X*X Xd.*X>XG.>X*XH.5X. o - 6 6 = X   X $ % # o % ",
"y U.pXZXZXP.L.L.7.L.Q.Q.M.KX, @ t.u.i.a.y.T w S G G c c c M c V C M M c x yX=X&X&X:X=X<X&X( :X*XH.5X@ I p.i.i.p.f % # x.x.l.l.|.",
"X I 4XH.E.h.#.6.#.#.#.*.M.:XjX, x <.g } p T 9 c z M c c c m M M M c c C 7XeX*X=X=X=X=X;X>X/ c.:XY.|.: E D g w.9 R % ' c G c J +.",
"+ 3 -XG.=X X|.m.B.{.M.m.8X>X].< m M p p m x D S c c C C c m M M M c c V 7XeX*X=X=X=X;X;X*X*XA.7XK.3.* M C p p x c $ U B c c A a ",
"X P 2X<Xf.>X:X:XyX:Xb.:X:X-X.Xc H 4 l S B m s C c C x t.D  .D x c c c c 7XeX=X>X&X%Xn.&X*XE.j.U.5.3.o B z m l c G . L z c x x s ",
"+ K #X( %X;X;Xv.%X:Xc.n.'.Z.8XM.S z c x z n a A c l 0 s y.{ 2.i n z N H T.A.:X-X4X4Xv.Z.eXY.6.;.$.2.@ U M B b z c o L c c c z z ",
"+ @ ' ) .X].'.z..X) z.'.z.M.K.8.t v c 0 x p { a x 0 9 h w w { 6 7 l A >.!.h.b.) ].].].'.x.<.>.>.>.i + 4 l b v v l   : l l z z l ",
"! f o > $ > $ : : : n S V R.Q.W.6XA A D A j | h s j R & i 2.s.= * X <.U.I.R.W > > > $ : : * = - - & O # : o o o o     # # # # o ",
"q.j $XLXBXVXVXP   o KXJXJXhXGXFXGXAXAXAXDX>.} :.AXDXDXAXSXQ.Q.x._.OX{.j.P.m.).(.`.`.^ X . PXVXLXPX> X ' BXxXBXJXJXaXKXBXKXVXLXo ",
"} u.fX=XmX<XsXBX4 KX%X*X=XbXF.F.G.%XHXgX*XzXy zXF.hX=XHX/.pX;.V B Q <.3.u  .y.:.S z.E 3 BX&X=XfX=XlXA lXG.*X*XmXfXC.O.S.*XgX&XBX",
"q.t.Z.bXJ.=Xf.-X% 3X=XJ.,XH.fXH.=X&XvXJ.iX*Xu ;XcX=XH.J.H.E.+.C b H C F u.e.X.y.t H z 1 1X,XcXH.V.H.R.=X&X>X;XG.eXN.P.O.C.eX:X3X",
"} :.Z.*XS.eXS.5X# #X}.=XH.Y.T.E.*X<X<XiXsX:Xo.3X'.0X0X Xb.W l l H c l D h { X.{ r m U @ OXv.>X XH.~.R.*XsXb.;X;X:XtXj.-.h.uX.X@X",
"] 9X*XS.R.N.C.$Xo 5XuXrXj.*.6.;.S.*X=X>XiX:X9 3X:X7XN.A.aXB K m c c c l 0 p i p l c H q $XS.R.B.8XE.T.eXc.}.:X&Xv. XM.+.V.Z.3X@X",
"9.K.N.tXN.j.x._.% #X=XiXh.j.&.h.eX<X=XJ.=X:X9 t.|.j.j.B..X4 3 b c m c H l l b m l c A i t.0XB.3.7XO.I.d.l..X3X-XZ.M.@.d.*Xv.2X' ",
"7.L.K.-.D :.^ < . 3X>X=XtXO.h.B.*X=X*X&XJ.:X6 e :.[ [ :.I +   , v , , : , , , 7 q 7 i | a <.o.>.3.L.7.P.<.R t.E @.%.%.).Q ' Y . ",
"4.W.8.s.w.w.r.; @ 3X>X=XuX XV. X*Xn.-X=X=XXX9 e r.e.e.r.f @ @ OXOXoXt.,.,.,.,.2.2.3.u...a 9X0XwXpXK.7.L.2.e.e.:.U.K.!.lX.X(.t.t.",
" .2.>.s w.| j t.@ 3X=XJ.=X*X*X*X>X( n.*XeX7X9 u.s | q.g ^ v 5XuXiXC.%.6.*.5.5.5.5.=.wX,.kXuXrXfXiXZXW.=.y } e.a 3.U.ZX^./.g.P.5.",
"+ : m 1.r  .9 R o 3X=X&X=X=X>X&X>Xv.( 8XR.M.9 A +.a  .p m > oX;X&X*X-.o.-.o.o.j.%.9XyX<.#X&XcXG.&X:X0 S 1.a [ 9 D : :X&X>X|.+.%.",
"O $ B z x V C U # 5X=X=X=X=XG.;X:X*XA.T.6.;.9 m l A 9 x m , @X-X=X%X:XyX@.8XA.d.yXG.yXp $X*XJ.eX/ XXx B N 0 V M b o 1X:X-X:XZ. X",
". > N z c l c U # 5X%X=X=XG.D.%XeXtX&.6.5.3.& q z l c m U > `.:Xn.G.=X*XZ.:Xb.}.b.=X}.T $Xb.S.Y.S.|.9 B N c c H b > #X3Xb.%X=XJ.",
". % b B m m c L # _.4XZ.%X4X;X'.yXB.=.*.$.<.X K m m m 8 l W m.3X) -X:Xb.D.%Xn.%XG.f.*XZ {.XXA.N.E.m.3.l M m c l L . oX2X].;X>Xn.",
"O . > l l , v $   o ' ) ) _.' ^ Q T :.>.,., o . K v 8 0 o.U.I.@.).z.z.J 1.1.z.d./ d.m.:. .:.>.o.@.I.0.>.8 7 0 , @ . # ' ' ' ) Q ",
"O   o . . . # . X   . # $ . #   & & = = & X + % # o X 6X7.7.7.[ w 6 u u .. .s {.9X9X6X2.y  .[ [ U.L.7.P.Z 6 8 8   . . . o $ # . ",
"+ 3 @XlXlXlXBXJX0XdXzXmXVXxXP ; t.p.i.i.r.f   ^ lXzXA.U.7.7.7.9.0.8.wX3.>.3.x.l.d.l.d.z.z.1.).<.@.I.7.j.x.(.<.{.(.t.(.+Xt.`.' 5 ",
"+ I 3X=X=X=XiXtXg.&.N.*XsX-X@X, S <.w  .p ^ o kX%X*Xg.%.$.5.%.#.*.;.A.dXR.G H N M / / G G S F S c +.=.C M J G W t.:.u.y.,.S z Q ",
"k <.:X&X&X>XsX*XR.I.#.m.*X%X[.> m m p t V S o #X%X*XyX|.M.m.8XA.J 0X:XeX9XC G c M M G l a ]  .x ) H 9 c M c G S T ..| | h 0 l m ",
"| ,.|.&X_ iX%XJ.Y.&.&.A.=X:X[.> m c m l c b # 3XiXc.:X>X*XG.*Xf.>X}.=X~.9Xx W J c c c Z y.a.|  .F x D c N l x 0 i h } { r c B S ",
"..,.XXc.;X%X%Xf.Y.-.-.Z.n.XX`.> B z c z M U # 1X'.-X>X>XD.G.}./ %Xn.=XC.R.C c l.c G C 9 { X.e.a A p s m N l m m x q q q l N M x ",
"4.8.m.z.@X_._._.(.1.(.].' [.P % 5 B 4 b v < @ P _.`.@X_.' _.(.) @X_.).A.U.C H G M M M m i { e D c A  .q 8 m m v 8 v 8 q 8 0 0 j ",
"7.L.R., % 1 < 1 < ; < % 1 < O + % > % o @ @ O o < 1 < < < 3 < 1 4 < <.9XR.x c M M M M M x A V M N A h T 0 9 D r h k r.e e e  ...",
"7.L.R.x.(.).).).`.+X+X`.(.OX  . xXVXKXBXVX5 @ > VXVXVXCX#   kXBXBXBXFXK.9Xx M M c c c M m x G M N A  .{.KXzXGXDX{. .i y.i.y.u.a ",
"5.P.+.l ).C {.o.r u.,.t x.C Q ^ aX=XMXF.gXVXo JX=XF.nX%XjX$X4X&XHXgXrXmX* B G M c c m z G M M M c V <.lX*XMX=XGXsX,.3.D i s u 3.",
"4.$.C c c C t :.e.i.}  .x l b L 1XiX=XJ.n.5X# .XmXJ.rXn.OX_.-XgX=X=XZ.3X. b z c c c z z M M M M c V J :XbX%XrXS.-XT 0 S <.8 A A ",
"{ a x m B z S h g } w.a c c m L c./.Y.~.S.5X# 2Xv.~.S.'.OX_.b.*X~.C.*X3Xo B M G x 1.x A V C c z c m G .X*X*XE.E.1XR R m l S m v ",
"{ j S z N N z n i i 0 0 c M b L aXrXT.K.tX3X. 1XuXN.C.yXOXoX:XC.E.k.eX.X  c M x x a e...u.t S z c n , .XS.Y.K.Y.aXf m M M N B L ",
"o > $ > o > $ > $ : : : n S V R.Q.W.6XA A D A j | h s j R & i 2.s.= * X <.8.I.7XW > > > $ : : * = 6 - & O # : o . o o     # # # ",
"$XLXBXVX$XLXBXVXVXP   o LXJXJXhXGXFXGXAXAXAXDX>.} :.AXDXBXzXSXQ.Q.x._.OX{.j.P.m.).(.`.`.^ X . PXVXLXPX> X ' BXxXBXJXJXaXKXBXKXVX",
"fX=XmX<XfX=XmX<XsXBX4 KX%X*X>XbXF.F.G.%XHXgX*XzXy zXF.hX=XHX/.pX;.V B Q <.3.u  .y.:.C z.E 3 BX&X=XfX=XlXA lXG.*X*XmXfXC.O.S.H.fX",
"Z.bXJ.=XZ.bXJ.=Xf.-X% 3X=XJ.,XH.fXH.=X&XvXJ.iX*Xu :XcXJ.H.J.H.E.+.C z H C F u.e.X.y.t H z , 1X,XcXH.V.H.R.=X&X>X=XG.eXN.P.O.C.eX",
"Z.*XS.eXZ.*XS.eXS.5X# #X}.=XH.Y.T.E.*X<X<XiXsX:Xo.3Xn.0X0X Xb.W l l H c l D h { X.{ r m U @ OXv.>X}.H.~.7X*XsX'.;X;X:XtXj.-.h.uX",
"*XS.R.N.*XS.R.N.C.$Xo 5XuXrXj.*.6.;.S.*X=X>XiX:X9 3X:X7XN.A.aXB K m c c c l 0 p i p l c H q $XS.E.B.8XE.T.eXc.}.:X&Xv. XM.+.V.Z.",
"                                                                                                                                "
};
